<svg width="25" height="25" viewBox="0 0 25 25" fill="none" xmlns="http://www.w3.org/2000/svg">
<g clip-path="url(#clip0_209_667)">
<path d="M5.86126 17.4125L6.39159 17.9428L5.86126 17.4125ZM2.17084 20.0423C1.87795 20.3352 1.87795 20.81 2.17084 21.1029C2.46374 21.3958 2.93861 21.3958 3.2315 21.1029L2.17084 20.0423ZM6.87236 22.8811C6.45815 22.8811 6.12236 23.2169 6.12236 23.6311C6.12236 24.0453 6.45815 24.3811 6.87236 24.3811V22.8811ZM15.4144 23.2565L14.8841 22.7262L14.8841 22.7262L15.4144 23.2565ZM21.813 16.8581L22.3433 17.3885L21.813 16.8581ZM19.1874 14.2325L18.657 13.7021L19.1874 14.2325ZM16.1779 16.1813C15.885 16.4742 15.885 16.949 16.1779 17.2419C16.4708 17.5348 16.9457 17.5348 17.2386 17.2419L16.1779 16.1813ZM11.5002 18.4374C11.086 18.4374 10.7502 18.7732 10.7502 19.1874C10.7502 19.6016 11.086 19.9374 11.5002 19.9374V18.4374ZM21.813 14.2325L22.3433 13.7021L21.813 14.2325ZM9.1942 12.8179L9.00257 12.0928H9.00257L9.1942 12.8179ZM9.53466 12.728L9.72628 13.4531L9.53466 12.728ZM11.4822 3.25044L11.2881 2.52601V2.52601L11.4822 3.25044ZM16.2713 1.96701L16.0772 1.24257V1.24257L16.2713 1.96701ZM16.3235 10.9085L16.1319 10.1834L16.1319 10.1834L16.3235 10.9085ZM15.9812 10.999L16.1728 11.7241L16.1728 11.7241L15.9812 10.999ZM15.2862 8.394L15.4813 9.1182L15.2862 8.394ZM8.50472 10.2089L8.69634 10.9341H8.69634L8.50472 10.2089ZM15.0269 15.4909H8.68969V16.9909H15.0269V15.4909ZM5.33093 16.8822L2.17084 20.0423L3.2315 21.1029L6.39159 17.9428L5.33093 16.8822ZM14.5108 24.3811C15.0294 24.3811 15.5492 24.1823 15.9447 23.7868L14.8841 22.7262C14.7805 22.8298 14.6468 22.8811 14.5108 22.8811V24.3811ZM15.9447 23.7868L22.3433 17.3885L21.2827 16.3278L14.8841 22.7262L15.9447 23.7868ZM18.657 13.7021L16.1779 16.1813L17.2386 17.2419L19.7177 14.7628L18.657 13.7021ZM15.0269 18.4374H11.5002V19.9374H15.0269V18.4374ZM22.3433 13.7021C21.3254 12.6842 19.675 12.6842 18.657 13.7021L19.7177 14.7628C20.1499 14.3306 20.8505 14.3306 21.2827 14.7628L22.3433 13.7021ZM22.3433 17.3885C23.3613 16.3705 23.3613 14.7201 22.3433 13.7021L21.2827 14.7628C21.7148 15.195 21.7148 15.8956 21.2827 16.3278L22.3433 17.3885ZM8.68969 15.4909C7.42991 15.4909 6.22173 15.9914 5.33093 16.8822L6.39159 17.9428C7.00109 17.3333 7.82774 16.9909 8.68969 16.9909V15.4909ZM15.7502 17.7142C15.7502 18.1136 15.4264 18.4374 15.0269 18.4374V19.9374C16.2548 19.9374 17.2502 18.942 17.2502 17.7142H15.7502ZM15.0269 16.9909C15.4264 16.9909 15.7502 17.3147 15.7502 17.7142H17.2502C17.2502 16.4863 16.2548 15.4909 15.0269 15.4909V16.9909ZM9.38582 13.543L9.72628 13.4531L9.34304 12.0028L9.00257 12.0928L9.38582 13.543ZM11.4911 11.1613V9.61794H9.99109V11.1613H11.4911ZM11.4911 9.61794V4.21636H9.99109V9.61794H11.4911ZM11.6764 3.97488L16.4655 2.69144L16.0772 1.24257L11.2881 2.52601L11.6764 3.97488ZM16.7802 2.93292V7.78969H18.2802V2.93292H16.7802ZM16.7802 7.78969V9.34161H18.2802V7.78969H16.7802ZM16.1319 10.1834L15.7896 10.2739L16.1728 11.7241L16.5151 11.6337L16.1319 10.1834ZM15.4813 9.1182L17.7252 8.51389L17.3351 7.06549L15.0912 7.6698L15.4813 9.1182ZM10.5495 8.89283L8.3131 9.48384L8.69634 10.9341L10.9327 10.343L10.5495 8.89283ZM15.0387 9.69567C15.0387 9.42527 15.2202 9.18851 15.4813 9.1182L15.0912 7.6698C14.1752 7.91648 13.5387 8.74707 13.5387 9.69567H15.0387ZM15.7896 10.2739C15.4102 10.3741 15.0387 10.088 15.0387 9.69567H13.5387C13.5387 11.0722 14.8419 12.0758 16.1728 11.7241L15.7896 10.2739ZM16.7802 9.34161C16.7802 9.73682 16.514 10.0825 16.1319 10.1834L16.5151 11.6337C17.5555 11.3588 18.2802 10.4177 18.2802 9.34161H16.7802ZM16.4655 2.69144C16.6243 2.64889 16.7802 2.76854 16.7802 2.93292H18.2802C18.2802 1.78222 17.1887 0.944704 16.0772 1.24257L16.4655 2.69144ZM11.4911 4.21636C11.4911 4.10321 11.5671 4.00417 11.6764 3.97488L11.2881 2.52601C10.5231 2.73103 9.99109 3.42433 9.99109 4.21636H11.4911ZM9.72628 13.4531C10.7665 13.1782 11.4911 12.2372 11.4911 11.1613H9.99109C9.99109 11.5564 9.72501 11.9019 9.34304 12.0028L9.72628 13.4531ZM6.75018 11.5134C6.75018 12.8908 8.05419 13.8949 9.38582 13.543L9.00257 12.0928C8.62244 12.1933 8.25018 11.9066 8.25018 11.5134H6.75018ZM8.25018 11.5134C8.25018 11.2414 8.43337 11.0035 8.69634 10.9341L8.3131 9.48384C7.3919 9.72728 6.75018 10.5606 6.75018 11.5134H8.25018ZM6.87236 24.3811H14.5108V22.8811H6.87236V24.3811Z" fill="#75A5FF"/>
</g>
<defs>
<clipPath id="clip0_209_667">
<rect width="24" height="24" fill="white" transform="translate(0.5 0.629639)"/>
</clipPath>
</defs>
</svg>
