<svg width="104" height="22" viewBox="0 0 104 22" fill="none" xmlns="http://www.w3.org/2000/svg">
<path fill-rule="evenodd" clip-rule="evenodd" d="M16.9251 0.151245C17.113 0.292967 17.2235 0.514663 17.2235 0.750006V4.48346C17.2237 4.49477 17.2237 4.50605 17.2235 4.5173L17.2235 14.8032C17.2233 15.455 17.0109 16.0891 16.6183 16.6094C16.2257 17.1298 15.6742 17.5081 15.0474 17.6872L13.7325 18.0627C13.4102 18.1593 13.072 18.1912 12.7373 18.1565C12.4005 18.1217 12.074 18.0202 11.7769 17.858C11.4797 17.6959 11.2177 17.4762 11.0063 17.2118C10.7948 16.9474 10.638 16.6436 10.545 16.3181C10.4521 15.9925 10.4248 15.6518 10.4648 15.3156C10.5048 14.9794 10.6112 14.6545 10.7779 14.3599C10.9447 14.0652 11.1683 13.8066 11.4359 13.5992C11.7018 13.3931 12.0059 13.2416 12.3305 13.1534L14.6355 12.4949C14.9489 12.4053 15.2246 12.2162 15.4209 11.956C15.6171 11.6959 15.7234 11.3787 15.7235 11.0529V5.4943L6.72347 8.06573V17.8032C6.72333 18.455 6.51089 19.0891 6.11827 19.6094C5.72566 20.1298 5.17422 20.5081 4.54743 20.6872L3.22743 21.0642L3.21633 21.0672C2.56903 21.2414 1.87919 21.154 1.29577 20.8239C0.712359 20.4938 0.282182 19.9475 0.0981273 19.3029C-0.0859279 18.6584 -0.00909257 17.9673 0.312043 17.3789C0.633178 16.7905 1.17285 16.352 1.81452 16.1581L1.82542 16.1549L4.13547 15.4949C4.44886 15.4053 4.72457 15.2162 4.92087 14.956C5.11715 14.6959 5.22337 14.3787 5.22347 14.0529V7.51658C5.22321 7.50525 5.22321 7.49395 5.22347 7.48269V3.75001C5.22347 3.41515 5.44545 3.12086 5.76743 3.02886L16.2674 0.0288635C16.4937 -0.0357902 16.7372 0.00952247 16.9251 0.151245ZM6.72347 6.50571L15.7235 3.93428V1.7443L6.72347 4.31573V6.50571ZM5.22347 16.6506C5.01202 16.7727 4.78518 16.8693 4.54751 16.9371L2.24366 17.5954C1.98109 17.6761 1.76037 17.8562 1.62871 18.0975C1.49625 18.3402 1.46456 18.6252 1.54048 18.8911C1.61639 19.1569 1.79382 19.3822 2.03445 19.5184C2.27363 19.6537 2.55618 19.6902 2.82177 19.6201L4.13547 19.2449C4.44886 19.1553 4.72457 18.9662 4.92087 18.706C5.11714 18.4459 5.22337 18.1287 5.22347 17.8029V16.6506ZM15.7235 13.6506C15.512 13.7727 15.2852 13.8693 15.0475 13.9371L12.7375 14.5971L12.7263 14.6002C12.5915 14.6365 12.4652 14.6993 12.3548 14.7848C12.2445 14.8704 12.1522 14.977 12.0835 15.0985C12.0147 15.2201 11.9708 15.3541 11.9543 15.4927C11.9378 15.6314 11.9491 15.7719 11.9874 15.9062C12.0257 16.0405 12.0904 16.1658 12.1776 16.2748C12.2649 16.3839 12.3729 16.4745 12.4955 16.5414C12.618 16.6083 12.7527 16.6501 12.8916 16.6645C13.0305 16.6789 13.1709 16.6655 13.3045 16.6251L13.3155 16.6218L14.6355 16.2448C14.9489 16.1553 15.2246 15.9662 15.4209 15.706C15.6171 15.4459 15.7234 15.1287 15.7235 14.8029V13.6506Z" fill="white"/>
<path fill-rule="evenodd" clip-rule="evenodd" d="M31.4606 4H27.2236V15.1277H31.4606C35.0804 15.1277 36.9821 13.1406 36.9821 9.56384C36.9821 5.98708 35.0804 4 31.4606 4ZM31.2438 13.2996H29.4089V5.82812H31.2438C33.7626 5.82812 34.7468 6.94088 34.7468 9.56384C34.7468 12.1868 33.7626 13.2996 31.2438 13.2996Z" fill="white"/>
<path fill-rule="evenodd" clip-rule="evenodd" d="M46.4359 10.9789C46.4359 11.1855 46.4192 11.3604 46.3859 11.5194H40.1305C40.2639 13.0931 41.0813 13.7926 42.5326 13.7926C43.5501 13.7926 44.1339 13.3952 44.4175 12.5685H46.3192C45.8688 14.3966 44.4008 15.3346 42.3991 15.3346C40.0471 15.3346 38.1121 13.9992 38.1121 11.0266C38.1121 8.03797 40.0137 6.70265 42.3657 6.70265C44.7845 6.70265 46.4359 8.06976 46.4359 10.9789ZM40.1305 10.3907H44.4175C44.3675 9.07125 43.6835 8.26052 42.3324 8.26052C41.0479 8.26052 40.2639 8.99177 40.1305 10.3907Z" fill="white"/>
<path d="M49.8308 15.1276L46.628 6.86129H48.7965L51.1319 13.1882H51.2153L53.5506 6.86129H55.7359L52.5164 15.1276H49.8308Z" fill="white"/>
<path fill-rule="evenodd" clip-rule="evenodd" d="M64.2573 10.9789C64.2573 11.1855 64.2407 11.3604 64.2073 11.5194H57.9519C58.0853 13.0931 58.9027 13.7926 60.354 13.7926C61.3715 13.7926 61.9554 13.3952 62.2389 12.5685H64.1406C63.6902 14.3966 62.2223 15.3346 60.2205 15.3346C57.8685 15.3346 55.9335 13.9992 55.9335 11.0266C55.9335 8.03797 57.8351 6.70265 60.1872 6.70265C62.6059 6.70265 64.2573 8.06976 64.2573 10.9789ZM57.9519 10.3907H62.2389C62.1889 9.07125 61.505 8.26052 60.1538 8.26052C58.8694 8.26052 58.0853 8.99177 57.9519 10.3907Z" fill="white"/>
<path d="M65.6195 15.1277V4H67.7547V15.1277H65.6195Z" fill="white"/>
<path fill-rule="evenodd" clip-rule="evenodd" d="M73.4321 15.2869C71.1468 15.2869 69.1285 13.8721 69.1285 10.9948C69.1285 8.11745 71.1468 6.70265 73.4321 6.70265C75.7007 6.70265 77.7359 8.11745 77.7359 10.9948C77.7359 13.8721 75.7007 15.2869 73.4321 15.2869ZM73.4321 13.5859C74.7666 13.5859 75.7175 12.7116 75.7175 10.9948C75.7175 9.27791 74.7666 8.40359 73.4321 8.40359C72.0809 8.40359 71.1301 9.27791 71.1301 10.9948C71.1301 12.7116 72.0809 13.5859 73.4321 13.5859Z" fill="white"/>
<path fill-rule="evenodd" clip-rule="evenodd" d="M83.9289 6.70265C85.8972 6.70265 87.7489 8.08566 87.7489 10.9948C87.7489 13.9039 85.8972 15.2869 83.9289 15.2869C82.6778 15.2869 81.6603 14.7464 81.2432 13.9356V18.1483H79.1077V6.86161H81.2432V8.05387C81.6603 7.24314 82.6778 6.70265 83.9289 6.70265ZM83.4284 13.5859C84.7129 13.5859 85.7471 12.6639 85.7471 10.9948C85.7471 9.3256 84.7129 8.40359 83.4284 8.40359C82.1607 8.40359 81.1431 9.3256 81.1431 10.9948C81.1431 12.6639 82.1607 13.5859 83.4284 13.5859Z" fill="white"/>
<path fill-rule="evenodd" clip-rule="evenodd" d="M97.1143 10.9789C97.1143 11.1855 97.0976 11.3604 97.0643 11.5194H90.8088C90.9423 13.0931 91.7597 13.7926 93.2109 13.7926C94.2285 13.7926 94.8123 13.3952 95.0959 12.5685H96.9975C96.5472 14.3966 95.0792 15.3346 93.0775 15.3346C90.7254 15.3346 88.7904 13.9992 88.7904 11.0266C88.7904 8.03797 90.6921 6.70265 93.0441 6.70265C95.4629 6.70265 97.1143 8.06976 97.1143 10.9789ZM90.8088 10.3907H95.0959C95.0459 9.07125 94.3619 8.26052 93.0108 8.26052C91.7263 8.26052 90.9423 8.99177 90.8088 10.3907Z" fill="white"/>
<path d="M103.231 6.79773C103.481 6.79773 103.698 6.82953 103.898 6.87722V8.59406C103.648 8.56226 103.415 8.54637 103.231 8.54637C101.696 8.54637 100.612 9.43658 100.612 11.2806V15.1276H98.477V6.86132H100.612V8.83251H100.662C100.979 7.62436 101.847 6.79773 103.231 6.79773Z" fill="white"/>
</svg>
